<svg width="1400" height="420" viewBox="0 0 1400 420" fill="none" xmlns="http://www.w3.org/2000/svg">
<path fill-rule="evenodd" clip-rule="evenodd" d="M1399.15 198.139C1399.15 184.682 1390.38 173.449 1378.93 172.243L1340.85 168.232C1282.55 162.704 1165.95 150.422 1049.36 120.943C932.764 91.4635 816.168 44.7884 699.573 20.8367C582.977 -2.50085 466.382 -2.50085 349.786 3.02646C233.191 9.16792 116.595 20.8367 58.2977 26.9782L20.416 30.5698C8.88338 31.6632 0 42.9394 0 56.485V219C0 233.359 9.94318 245 22.2087 245H58.2977C116.595 245 233.191 245 349.786 245C466.382 245 582.977 245 699.573 245C816.168 245 932.764 245 1049.36 245C1165.95 245 1282.55 245 1340.85 245H1376.94C1389.2 245 1399.15 233.359 1399.15 219V198.139Z" fill="#CBF3D2"/>
<path d="M0.854179 224C0.854179 209.641 10.7973 198 23.0628 198H1377.79C1390.06 198 1400 209.641 1400 224V394C1400 408.359 1390.06 420 1377.79 420H23.0628C10.7973 420 0.854179 408.359 0.854179 394V224Z" fill="#CBF3D2"/>
</svg>
