<svg width="1639" height="420" viewBox="0 0 1639 420" fill="none" xmlns="http://www.w3.org/2000/svg">
<path fill-rule="evenodd" clip-rule="evenodd" d="M1638 198.139C1638 184.682 1627.73 173.449 1614.33 172.243L1569.75 168.232C1501.5 162.704 1365 150.422 1228.5 120.943C1092 91.4635 955.5 44.7884 819 20.8367C682.5 -2.50085 546 -2.50085 409.5 3.02646C273 9.16792 136.5 20.8367 68.25 26.9782L23.9012 30.5698C10.3999 31.6632 0 42.9394 0 56.485V219C0 233.359 11.6406 245 26 245H68.25C136.5 245 273 245 409.5 245C546 245 682.5 245 819 245C955.5 245 1092 245 1228.5 245C1365 245 1501.5 245 1569.75 245H1612C1626.36 245 1638 233.359 1638 219V198.139Z" fill="#CBF3D2"/>
<path d="M1 224C1 209.641 12.6406 198 27 198H1613C1627.36 198 1639 209.641 1639 224V394C1639 408.359 1627.36 420 1613 420H27C12.6406 420 1 408.359 1 394V224Z" fill="#CBF3D2"/>
</svg>
