<svg width="1638" height="3000" viewBox="0 0 1638 3000" fill="none" xmlns="http://www.w3.org/2000/svg">
<path fill-rule="evenodd" clip-rule="evenodd" d="M0 1445C0 1467.92 0 1479.38 0.671929 1490C1.64262 1505.33 3.63588 1519.55 6.4734 1531.37C8.43759 1539.55 10.9811 1546.23 16.068 1559.58L39.2437 1620.41C77.6344 1727.1 156.122 1940.48 233.756 2047.17C312.244 2150.18 389.878 2150.18 468.366 2117.07C546 2080.28 623.634 2010.38 702.122 2080.28C779.756 2150.18 858.244 2363.55 935.878 2576.93C1014.37 2786.62 1092 3000 1169.63 3000C1248.12 3000 1325.76 2786.62 1404.24 2679.94C1481.88 2576.93 1560.37 2576.93 1598.76 2576.93C1611.1 2576.93 1617.27 2576.93 1622.13 2569.41C1628.36 2559.76 1633.31 2541.6 1635.95 2518.78C1638 2501 1638 2478.39 1638 2433.18V1447.78C1638 1402.57 1638 1379.96 1635.95 1362.17C1633.31 1339.36 1628.36 1321.2 1622.13 1311.55C1617.27 1304.03 1611.1 1304.03 1598.76 1304.03C1560.37 1304.03 1481.88 1304.03 1404.24 1304.03C1325.76 1304.03 1248.12 1304.03 1169.63 1304.03C1092 1304.03 1014.37 1304.03 935.878 1304.03C858.244 1304.03 779.756 1304.03 702.122 1304.03C623.634 1304.03 546 1304.03 468.366 1304.03C389.878 1304.03 312.244 1304.03 233.756 1304.03C156.122 1304.03 77.6344 1304.03 39.2437 1304.03H38.484C26.8537 1304.03 21.0386 1304.03 16.4258 1310.72C9.75321 1320.4 4.46979 1339.76 1.82698 1364.2C0 1381.09 0 1402.39 0 1445Z" fill="#CBF3D2"/>
<path d="M0 95.2381C0 42.6395 11.6406 0 26 0H1612C1626.36 0 1638 42.6395 1638 95.2381V1355.31C1638 1407.91 1626.36 1450.55 1612 1450.55H26C11.6406 1450.55 0 1407.91 0 1355.31V95.2381Z" fill="#CBF3D2"/>
</svg>
