<svg width="1638" height="819" viewBox="0 0 1638 819" fill="none" xmlns="http://www.w3.org/2000/svg">
<path fill-rule="evenodd" clip-rule="evenodd" d="M0 394.484C0 400.742 0 403.871 0.671929 406.769C1.64262 410.956 3.63588 414.836 6.4734 418.064C8.43759 420.298 10.9811 422.12 16.068 425.766L39.2438 442.373C77.6344 471.499 156.122 529.751 233.756 558.876C312.244 586.998 389.878 586.998 468.366 577.959C546 567.915 623.634 548.833 702.122 567.915C779.756 586.998 858.244 645.249 935.878 703.501C1014.37 760.748 1092 819 1169.63 819C1248.12 819 1325.76 760.748 1404.24 731.623C1481.88 703.501 1560.37 703.501 1598.76 703.501C1611.1 703.501 1617.27 703.501 1622.13 701.448C1628.36 698.814 1633.31 693.856 1635.95 687.627C1638 682.772 1638 676.601 1638 664.257V395.244C1638 382.9 1638 376.729 1635.95 371.874C1633.31 365.645 1628.36 360.687 1622.13 358.053C1617.27 356 1611.1 356 1598.76 356C1560.37 356 1481.88 356 1404.24 356C1325.76 356 1248.12 356 1169.63 356C1092 356 1014.37 356 935.878 356C858.244 356 779.756 356 702.122 356C623.634 356 546 356 468.366 356C389.878 356 312.244 356 233.756 356C156.122 356 77.6344 356 39.2438 356H38.484C26.8537 356 21.0386 356 16.4258 357.827C9.75321 360.47 4.46979 365.753 1.82698 372.426C0 377.039 0 382.854 0 394.484Z" fill="#CBF3D2"/>
<path d="M0 26C0 11.6406 11.6406 0 26 0H1612C1626.36 0 1638 11.6406 1638 26V370C1638 384.359 1626.36 396 1612 396H26C11.6406 396 0 384.359 0 370V26Z" fill="#CBF3D2"/>
</svg>
