<svg width="69" height="17" viewBox="0 0 69 17" fill="none" xmlns="http://www.w3.org/2000/svg">
<path d="M2.46722 1.66529V16.0843H0.53125V1.66529H2.46722ZM11.4946 1.66529V16.0843H9.58882V1.66529H11.4946ZM16.189 1.66529V3.23H4.90436V1.66529H16.189ZM19.5792 7.05261V16.0843H17.7234V5.36909H19.5289L19.5792 7.05261ZM22.9697 5.30969L22.9597 7.01299C22.8059 6.98 22.6589 6.96021 22.5183 6.95359C22.3845 6.94038 22.2306 6.9338 22.0572 6.9338C21.6289 6.9338 21.2509 6.99983 20.9236 7.13184C20.5958 7.2639 20.3183 7.44873 20.0909 7.68643C19.8636 7.92409 19.6828 8.20799 19.549 8.53808C19.4221 8.8616 19.3386 9.21811 19.2984 9.60765L18.7766 9.90475C18.7766 9.25772 18.8405 8.65035 18.9674 8.08256C19.1012 7.51476 19.3053 7.01299 19.5792 6.57725C19.8535 6.13493 20.2014 5.79163 20.6223 5.54734C21.0505 5.29648 21.5586 5.17101 22.1471 5.17101C22.2809 5.17101 22.4347 5.18755 22.6086 5.22054C22.7826 5.24695 22.9031 5.27665 22.9697 5.30969ZM29.3994 16.2824C28.6434 16.2824 27.9582 16.1569 27.3428 15.9061C26.7342 15.6486 26.2092 15.2888 25.7682 14.8266C25.3332 14.3645 24.999 13.8165 24.7648 13.1827C24.5311 12.5489 24.4137 11.8557 24.4137 11.103V10.6871C24.4137 9.8156 24.5443 9.03985 24.805 8.35983C25.0656 7.67323 25.4204 7.09222 25.8682 6.61687C26.3165 6.14155 26.8246 5.78171 27.393 5.53743C27.9614 5.29315 28.5498 5.17101 29.1584 5.17101C29.9344 5.17101 30.6028 5.30306 31.1648 5.56713C31.7331 5.83124 32.1979 6.20096 32.559 6.67631C32.9201 7.14505 33.1876 7.69964 33.3616 8.34004C33.5355 8.97382 33.6222 9.66705 33.6222 10.4197V11.2417H25.5171V9.74629H31.7665V9.60765C31.74 9.13229 31.6396 8.67014 31.4656 8.22119C31.2985 7.77225 31.031 7.40253 30.6631 7.11205C30.2956 6.82153 29.7938 6.67631 29.1584 6.67631C28.737 6.67631 28.3494 6.76542 27.9947 6.94367C27.6404 7.11534 27.3364 7.37283 27.0821 7.71613C26.8278 8.05943 26.6306 8.47868 26.4904 8.97382C26.3498 9.46901 26.2795 10.0401 26.2795 10.6871V11.103C26.2795 11.6114 26.3498 12.09 26.4904 12.539C26.6374 12.9813 26.8479 13.3708 27.1223 13.7076C27.403 14.0442 27.7409 14.3084 28.1353 14.4998C28.5366 14.6913 28.9913 14.787 29.4994 14.787C30.155 14.787 30.7101 14.6549 31.1648 14.3909C31.6195 14.1268 32.0176 13.7736 32.3586 13.3312L33.4821 14.2126C33.2479 14.5625 32.9502 14.8959 32.5891 15.2128C32.228 15.5297 31.7834 15.7872 31.2552 15.9853C30.7334 16.1833 30.1148 16.2824 29.3994 16.2824ZM38.0555 7.65673V16.0843H36.1997V5.36909H37.9551L38.0555 7.65673ZM37.6141 10.3207L36.8416 10.291C36.8485 9.55812 36.9589 8.88143 37.1731 8.26081C37.3867 7.63361 37.688 7.08893 38.0756 6.62678C38.4636 6.16463 38.9247 5.80812 39.4598 5.55726C40.0017 5.29977 40.6002 5.17101 41.2553 5.17101C41.7903 5.17101 42.272 5.24366 42.7002 5.38888C43.1279 5.52751 43.4922 5.75201 43.7935 6.06232C44.1008 6.37258 44.335 6.77533 44.4957 7.27048C44.6559 7.75904 44.7363 8.35654 44.7363 9.06297V16.0843H42.8705V9.04314C42.8705 8.48197 42.7869 8.03302 42.6198 7.69635C42.4527 7.353 42.2085 7.10543 41.8876 6.95359C41.5666 6.79512 41.1717 6.71593 40.7038 6.71593C40.2423 6.71593 39.8209 6.81166 39.4397 7.00312C39.0653 7.19458 38.7412 7.45865 38.4668 7.79537C38.1993 8.13209 37.9889 8.5183 37.835 8.95404C37.688 9.38315 37.6141 9.83872 37.6141 10.3207ZM54.8071 14.0046V0.873047H56.6729V16.0843H54.9674L54.8071 14.0046ZM47.5046 10.8456V10.6376C47.5046 9.81889 47.6046 9.07618 47.8055 8.40936C48.0127 7.73596 48.3035 7.15825 48.6779 6.67631C49.0591 6.19433 49.5106 5.82462 50.0324 5.56713C50.5606 5.30306 51.149 5.17101 51.7977 5.17101C52.4798 5.17101 53.0751 5.28986 53.5832 5.52751C54.0981 5.75859 54.5328 6.0986 54.887 6.54755C55.2481 6.98991 55.5325 7.52467 55.7398 8.15187C55.9471 8.77907 56.0909 9.4888 56.1712 10.281V11.1921C56.0977 11.9778 55.9539 12.6842 55.7398 13.3114C55.5325 13.9386 55.2481 14.4734 54.887 14.9157C54.5328 15.3581 54.0981 15.6981 53.5832 15.9358C53.0682 16.1668 52.4665 16.2824 51.7776 16.2824C51.1422 16.2824 50.5606 16.1471 50.0324 15.8764C49.5106 15.6057 49.0591 15.226 48.6779 14.7375C48.3035 14.2489 48.0127 13.6745 47.8055 13.0143C47.6046 12.3475 47.5046 11.6246 47.5046 10.8456ZM49.37 10.6376V10.8456C49.37 11.3803 49.4238 11.8821 49.5306 12.3508C49.6443 12.8195 49.8183 13.2322 50.0525 13.5887C50.2862 13.9452 50.5838 14.2258 50.945 14.4305C51.3061 14.6285 51.7375 14.7276 52.2392 14.7276C52.8541 14.7276 53.359 14.5988 53.7539 14.3413C54.1548 14.0839 54.4761 13.7438 54.7167 13.3213C54.9573 12.8988 55.1445 12.44 55.2783 11.9448V9.55812C55.1984 9.19503 55.081 8.8451 54.9272 8.50838C54.7802 8.16508 54.5862 7.86139 54.3456 7.59728C54.1114 7.32659 53.8206 7.11205 53.4727 6.95359C53.1317 6.79512 52.7272 6.71593 52.2593 6.71593C51.7507 6.71593 51.3129 6.82153 50.945 7.03282C50.5838 7.23749 50.2862 7.52138 50.0525 7.88447C49.8183 8.24102 49.6443 8.65693 49.5306 9.13229C49.4238 9.60102 49.37 10.1028 49.37 10.6376ZM68.0577 14.5791V16.0843H60.163V14.5791H68.0577ZM67.7664 6.6664L60.5844 16.0843H59.4509V14.7375L66.5831 5.36909H67.7664V6.6664ZM66.9442 5.36909V6.88427H59.5312V5.36909H66.9442Z" fill="#4E4E4E"/>
</svg>
